<svg xmlns="http://www.w3.org/2000/svg" xmlns:xlink="http://www.w3.org/1999/xlink" width="30" height="30.003629684448242" viewBox="0 0 30 30.003629684448242" fill="none">
<rect x="0" y="0" width="0" height="0" fill="rgba(249, 249, 249, 1)" />
<rect x="0" y="0" width="7" height="2"   fill="#006FC3" >
</rect>
<rect x="0" y="3" width="7" height="2"   fill="#006FC3" >
</rect>
<rect x="0" y="6" width="7" height="2"   fill="#006FC3" >
</rect>
<path d="M7 6L14 6L14 8L7 8L7 6Z"   fill="#006FC3" >
</path>
<path d="M16 6L23 6L23 8L16 8L16 6Z"   fill="#006FC3" >
</path>
<path d="M23 6L30 6L30 8L23 8L23 6Z"   fill="#006FC3" >
</path>
<path d="M19.5 0L21.5 0L21.5 5L19.5 5L19.5 0Z"   fill="#006FC3" >
</path>
<path d="M22 9L24 9L24 14L22 14L22 9Z"   fill="#006FC3" >
</path>
<path d="M17 9L19 9L19 14L17 14L17 9Z"   fill="#006FC3" >
</path>
<path d="M27 9L29 9L29 14L27 14L27 9Z"   fill="#006FC3" >
</path>
<path d="M24.5 0L26.5 0L26.5 5L24.5 5L24.5 0Z"   fill="#006FC3" >
</path>
<rect x="7" y="9" width="7" height="2"   fill="#006FC3" >
</rect>
<rect x="7" y="12" width="7" height="2"   fill="#006FC3" >
</rect>
<rect x="0" y="12" width="7" height="2"   fill="#006FC3" >
</rect>
<rect x="7" y="0" width="7" height="2"   fill="#006FC3" >
</rect>
<rect x="23" y="16" width="7" height="2"   fill="#006FC3" >
</rect>
<rect x="16" y="28" width="7" height="2"   fill="#006FC3" >
</rect>
<rect x="23" y="28" width="7" height="2"   fill="#006FC3" >
</rect>
<rect x="23" y="25" width="7" height="2"   fill="#006FC3" >
</rect>
<path d="M23 22L30 22L30 24L23 24L23 22Z"   fill="#006FC3" >
</path>
<rect x="16" y="22" width="7" height="2"   fill="#006FC3" >
</rect>
<rect x="16" y="19" width="7" height="2"   fill="#006FC3" >
</rect>
<rect x="16" y="16" width="7" height="2"   fill="#006FC3" >
</rect>
<rect x="0" y="16" width="7" height="2"   fill="#006FC3" >
</rect>
<rect x="11" y="16" width="3" height="2"   fill="#006FC3" >
</rect>
<rect x="0" y="28" width="3" height="2"   fill="#006FC3" >
</rect>
<path d="M12.6224 17.2L8.92727 22.1036L8.49718 19.5006L11.0251 15.9964L12.6224 17.2Z"   fill="#006FC3" >
</path>
<rect x="7" y="16" width="13.84" height="2" transform="rotate(82.0000004593792 7 16)"   fill="#006FC3" >
</rect>
<rect x="7" y="28" width="7" height="2"   fill="#006FC3" >
</rect>
<path d="M5.0029 24.0022L5.49723 26.5033L2.99727 30.0036L1.4 28.8L5.0029 24.0022Z"   fill="#006FC3" >
</path>
</svg>
